<svg xmlns="http://www.w3.org/2000/svg" xmlns:xlink="http://www.w3.org/1999/xlink" width="39" height="39" viewBox="0 0 39 39"><defs><style>.a{fill:none;}.b{clip-path:url(#a);}.c{fill:#ff4000;}.d{fill:#ffffff;}</style><clipPath id="a"><rect class="a" width="39" height="39"/></clipPath></defs><g class="b"><path class="c" d="M82.073,69.467a12.645,12.645,0,0,0-6.935-11.26A17.2,17.2,0,0,1,58.207,75.139a12.611,12.611,0,0,0,17.674,5.182l6.137,1.7-1.7-6.137a12.56,12.56,0,0,0,1.753-6.414" transform="translate(-43.073 -43.073)"/><path class="d" d="M29.783,14.891A14.892,14.892,0,1,0,2.065,22.461L.055,29.728l7.268-2.01A14.895,14.895,0,0,0,29.783,14.891M12.606,11.426H10.321A4.57,4.57,0,1,1,17.976,14.8l-1.941,1.777v1.782H13.749V15.569l2.684-2.456a2.262,2.262,0,0,0,.744-1.687,2.285,2.285,0,1,0-4.57,0m1.143,9.217h2.285v2.285H13.749Z"/></g></svg>
