<?xml version="1.0" encoding="UTF-8"?><svg id="Calque_2" xmlns="http://www.w3.org/2000/svg" viewBox="0 0 50 50"><defs><style>.cls-1{fill:#fe1300;}path:not(.cls-1){fill:#ffffff;}</style></defs><g><path d="M3.7,11.08,17.54,.54C9.96,1.79,5.34,5.38,3.7,11.09c1.25,.62,5.48,5.61,15.9,6.46L17.54,.54Z"/><path d="M46.3,11.08m-15.9,6.46c10.42-.85,14.65-5.84,15.9-6.46-1.64-5.71-6.26-9.3-13.84-10.55l-2.06,17.01Z"/></g><path class="cls-1" d="M21.4,38l2.38,11.92c.37,.03,.53,.08,.97,.08s.9-.05,1.35-.1l2.38-11.9c-1.17,.17-2.35,.29-3.54,.29s-2.38-.11-3.54-.28h0Zm0,0"/><path d="M4.12,27c2.63,12.42,9.85,20.01,16.54,22.27l-2.38-11.91c-5.65-1.56-10.67-5.06-14.16-10.36h0Zm0,0"/><path d="M45.85,26.85c-3.45,5.31-8.44,8.85-14.24,10.48l-2.36,11.8c6.69-2.4,13.85-9.94,16.6-22.28h0Zm0,0"/><path class="cls-1" d="M25.27,0c-1.67-.02-3.24,.04-4.72,.17l1.28,17.44c.63,.04,1.28,.06,1.95,.06h2.32c.66,0,1.31-.02,1.95-.06L29.33,.23c-1.29-.12-2.63-.2-4.06-.22Z"/><path d="M26.1,20.6h-2.31c-11.77,0-18.84-5.55-20.6-6.4-.04,.43-.06,.88-.08,1.33,1.11,10.91,10.29,19.81,21.83,19.81s21.53-9.25,21.95-21.27c-.51,.25-8.42,6.52-20.79,6.52Zm11.88,9.02l-2.05-9.02c.52-.13,1.01-.27,1.48-.42l1.91,8.38c-.43,.38-.88,.73-1.34,1.06Zm1.02-9.98c.51-.2,.99-.4,1.44-.6l1.51,6.61c-.38,.53-.78,1.05-1.23,1.52l-1.71-7.53Z"/></svg>
