<svg id="Capa_1" data-name="Capa 1" xmlns="http://www.w3.org/2000/svg" viewBox="0 0 212.6 212.6"><title>ICONE-GLOBAL-Plan de travail 11</title><path d="M163.61,124.63a3.48,3.48,0,0,0,.33-.34l.33-.35c.07-.07.1-.12.17-.2a25.06,25.06,0,0,0-.83-34.62L161,86.48a4.82,4.82,0,0,0-6.83,6.81L156.8,96a15.48,15.48,0,0,1,0,21.87L155,119.73a4.78,4.78,0,0,0,6.75,6.76Zm0,0"/><path d="M173.12,137.73l1.6-1.6v0l1.27-1.27a3.86,3.86,0,0,0,.57-.71,41.86,41.86,0,0,0-1.29-56.51,1.43,1.43,0,0,1-.2-.23l-2.89-2.89A4.4,4.4,0,0,0,166,80.73l2.86,2.88s0,0,.07.06a33,33,0,0,1,.25,45.56l-2.26,2.28a4.4,4.4,0,0,0,6.22,6.22Zm0,0"/><path d="M98.62,191.6a11.48,11.48,0,0,1-11.47-11.46V127.7l-43.65,29a11.46,11.46,0,0,1-12.7-19.09L78,106.24,30.79,74.93A11.46,11.46,0,1,1,43.5,55.85l43.65,29V32.46A11.47,11.47,0,0,1,104,22.35l44.83,24a22.79,22.79,0,0,1,1.87,39l-31.41,20.9,31.4,20.89a22.77,22.77,0,0,1-1.86,39l-44.83,24a11.4,11.4,0,0,1-5.41,1.36Zm11.46-64.11V161l28-15Zm0-76V84.9l28-18.59Zm0,0"/></svg>