<svg id="Capa_1" data-name="Capa 1" xmlns="http://www.w3.org/2000/svg" viewBox="0 0 212.6 212.6"><title>ICONE-GLOBAL-Plan de travail 4</title><path d="M90.64,150.58a3,3,0,0,0,2.48,4.2l.76.07a3.64,3.64,0,0,0,3-1l13.3-13.3-9.48-23.7C99.3,128.8,93.52,143.72,90.64,150.58Z"/><path d="M116,153.58a29.25,29.25,0,0,1-2.06-3.76c-.24-.52-.46-1-.65-1.52l-1.45-3.61-13.34,13.4a6.12,6.12,0,0,1-4.87,1.77l-5.94-.54a6,6,0,0,1-3.76-1.76L68.56,142.2a6.09,6.09,0,0,1-.65-7.85L92.51,100a6.25,6.25,0,0,1,1-1.06l-1-2.57L81.65,69.25a12.68,12.68,0,0,1-.81-3.19l-22.6-22.6C51.33,36.55,40.72,46.41,48,53.69L79.44,85.13a2,2,0,1,1-2.79,2.78L38.74,50c-6.66-6.66-17.3,3.16-10.23,10.23L66.42,98.14a2,2,0,1,1-2.78,2.79L30.35,67.68c-6.79-6.78-16.56,3.91-10.24,10.24l33.26,33.26A2,2,0,1,1,50.59,114L29,92.4c-6.31-6.31-15.57,3-9.3,9.3l60.2,60.21c2.86,2.86,6.65,5.49,10.4,5.6a2.07,2.07,0,0,1,1.49.63L96.62,173a2.15,2.15,0,0,0,3.06,0l17.59-17.59A21.56,21.56,0,0,1,116,153.58Zm-43.4-89-3.8,3.8a2.28,2.28,0,0,1-3.22-3.22l3.86-3.86a2.16,2.16,0,0,1,2.3-.5A2.29,2.29,0,0,1,72.59,64.61ZM54.51,72.23,50.71,76a2.27,2.27,0,0,1-3.22,0,2.26,2.26,0,0,1,0-3.22L51.35,69a2.16,2.16,0,0,1,2.29-.51A2.29,2.29,0,0,1,54.51,72.23Zm-10.7,15.7L40,91.73a2.28,2.28,0,1,1-3.22-3.23l3.86-3.86a2.18,2.18,0,0,1,2.3-.5A2.3,2.3,0,0,1,43.81,87.93ZM38.7,107.79l-3.81,3.8a2.28,2.28,0,0,1-3.22-3.23l3.86-3.86a2.2,2.2,0,0,1,2.3-.5A2.3,2.3,0,0,1,38.7,107.79Z"/><path d="M122.14,159.69a14.36,14.36,0,0,1-2-1.42L103.19,175.2a3.78,3.78,0,0,0-.88,4l2,2.14a3.79,3.79,0,0,0,1.61.37,3.74,3.74,0,0,0,2.69-1.11l15.66-15.66Z"/><path d="M127.31,174.63a8.06,8.06,0,0,1-.47-1.73,8.7,8.7,0,0,1-.13-.87l-1.13-3.25L111,183.34a3.81,3.81,0,0,0,5.39,5.38l12-12-.17-.48A8.18,8.18,0,0,1,127.31,174.63Z"/><path d="M194,95.72l-3.92-9.78-3.31-8.26-4.35-10.86c-3.2-8-15.73-3.91-12.2,4.88L175.93,86c1,2.49.44,4.65-1.92,5.6-2.53,1-4.41-.17-5.38-2.61l-24-60C141,20,127.37,24.84,131.2,34.41l16.51,41.27a2,2,0,1,1-3.65,1.46L124.14,27.36c-3.5-8.74-17.15-3.91-13.44,5.38l19.92,49.78A2,2,0,1,1,127,84l-17.5-43.67c-3.57-8.9-16.76-2.93-13.44,5.38l17.47,43.67a2,2,0,1,1-3.65,1.46L98.51,62.51C95.19,54.22,83,59.15,86.29,67.4l31.63,79c1.5,3.75,4,7.66,7.36,9.24a2.09,2.09,0,0,1,1.11,1.17l2.53,6.31a2.14,2.14,0,0,0,2.81,1.2L182.61,144a2.16,2.16,0,0,0,1.2-2.81l-2.66-6.65a2.08,2.08,0,0,1-.15-.84,2.46,2.46,0,0,1,0-.59l12.62-26.21A14.25,14.25,0,0,0,194,95.72ZM101.34,80.46l-5,2a2.3,2.3,0,0,1-1.75,0,2.33,2.33,0,0,1-1.22-1.25,2.26,2.26,0,0,1,1.27-3l5.08-2a2.15,2.15,0,0,1,2.3.44A2.29,2.29,0,0,1,101.34,80.46Zm43.17-24.34a2.26,2.26,0,0,1-1.75,0,2.3,2.3,0,0,1-1.22-1.25,2.27,2.27,0,0,1,1.27-3l5.08-2a2.17,2.17,0,0,1,2.3.44,2.3,2.3,0,0,1-.69,3.83ZM129.88,54l-5,2a2.28,2.28,0,0,1-3-1.27,2.28,2.28,0,0,1,1.27-3l5.08-2a2.17,2.17,0,0,1,2.3.45A2.29,2.29,0,0,1,129.88,54Zm-16,10.21-5,2a2.3,2.3,0,0,1-1.75,0A2.33,2.33,0,0,1,105.9,65a2.28,2.28,0,0,1,1.27-3l5.07-2a2.17,2.17,0,0,1,2.31.45A2.29,2.29,0,0,1,113.86,64.22Zm69.42,50.26-8.94,18.75a6.23,6.23,0,0,1-3.27,3.08l-34.58,13.94a6.12,6.12,0,0,1-5.17-.29l-5.25-2.84a5.9,5.9,0,0,1-2.76-3.1l-8.07-20.16a6.07,6.07,0,0,1,2.49-7.47l36.16-21.93a6.18,6.18,0,0,1,6.27-.07l20.89,12.2s.11.06.15.1A6.19,6.19,0,0,1,183.28,114.48Z"/><path d="M176.59,109.68,163,101.78a3,3,0,0,0-4.52,2.08c-2.19,12.07-19.26,29.62-26.26,36.39a3,3,0,0,0,.62,4.84l.67.37a3.65,3.65,0,0,0,3.14.2l31.87-12.75a3.59,3.59,0,0,0,2-1.89l7.59-16.7A3.64,3.64,0,0,0,176.59,109.68Z"/><path d="M185.46,155.47a3.81,3.81,0,1,0-2.83-7.07l-48.56,19.43a3.81,3.81,0,0,0,2.83,7.07Z"/><path d="M186.63,159l-48.56,19.44a3.81,3.81,0,0,0,2.82,7.07L189.46,166a3.81,3.81,0,0,0-2.83-7.08Z"/></svg>