<svg id="Capa_1" data-name="Capa 1" xmlns="http://www.w3.org/2000/svg" viewBox="0 0 212.6 212.6"><title>ICONE-GLOBAL-Plan de travail 3</title><path d="M189,66.88a14.82,14.82,0,0,0-4-13.59L168.37,36.66a14.86,14.86,0,0,0-18.66-1.91H130.46c.85-3.76,2.28-10.2,2.4-10.78a2.2,2.2,0,0,0,0-.58,2.6,2.6,0,0,0-2.6-2.15l-26.61.09c-25.38.09-25.38.09-25.48,2.24a2.78,2.78,0,0,0,0,.57L78.67,26c.84,4.11,1.43,6.88,1.82,8.7H65.66a14.9,14.9,0,0,0-16.59.21l0,0A67.61,67.61,0,0,0,36.84,46.81l-6.49,6.47a14.75,14.75,0,0,0-4.2,8.95C15.7,80.31,5.62,108.44,5.62,149.74A2.24,2.24,0,0,0,7.86,152H31.91a2.25,2.25,0,0,0,2.25-2.25c0-34.17,7.72-56.86,15.24-70.82l9.87,45.76-1.58,38.81a2.42,2.42,0,0,0,.23,1.1l8.41,16.7a2.56,2.56,0,0,0,.75.85c.57.38,14.06,9.21,37,9.21,13.4,0,27.27-3,41.25-9a2.2,2.2,0,0,0,1.12-1.05l8.45-17a2.28,2.28,0,0,0,.23-1.09l-1.47-40.09,9.7-43.86c7.42,14,15,36.55,15,70.48a2.25,2.25,0,0,0,2.26,2.25h24.06a2.24,2.24,0,0,0,2.24-2.25C207,111.81,198.5,85,189,66.88ZM29.68,147.49H10.13c.32-35.55,8.23-60.76,17.06-77.92a14.72,14.72,0,0,0,17.59,8.49C37.38,92.3,30,114.64,29.68,147.49ZM160.25,72.61l-11,49.83a2.14,2.14,0,0,0-.06.56l1.46,39.81-7.82,15.71c-13.15,5.53-26.17,8.32-38.71,8.32-19.21,0-31.52-6.67-34.05-8.16l-7.86-15.61,1.57-38.5a2.75,2.75,0,0,0-.05-.57l-11-51L68,57.67a14.83,14.83,0,0,0,2-18.43H83.29a2.28,2.28,0,0,0,1.75-1,2.41,2.41,0,0,0,.36-2c-.17-.65-1.51-7.07-2.18-10.31,8.62,0,35.37-.14,44.65-.16-.83,3.73-2.24,10-2.4,10.58a2.27,2.27,0,0,0,2.15,2.92h17.69a14.85,14.85,0,0,0,2,18.43l13.72,13.71A2.2,2.2,0,0,0,160.25,72.61Zm22.67,74.88c-.33-34-8.27-56.81-15.88-70.92a14.82,14.82,0,0,0,18-2.27,14.23,14.23,0,0,0,1.71-2.11c8.29,17.07,15.45,41.51,15.76,75.31Z"/><path d="M187.64,69.71c-7.11-15.62-37.3-33-37.3-33l-22.73-.35,1.78-11.72H80.13l2.73,12.07H58.23S47.69,41.3,27.8,65.81C5.42,101.68,8.27,149.28,8.27,149.28H31.83l.23-1.78C29.58,112,47.34,78.24,47.34,78.24l2.48-5L61.9,122.1l-1.42,41,7.46,16.34s23.88,9.59,38.36,9.59,38.36-9.59,38.36-9.59l8.17-16-1.42-41.21,11.36-46.53c17,11,18.83,73.53,18.83,73.53a204.27,204.27,0,0,0,22.73,0C207.17,124.77,194.74,85.34,187.64,69.71ZM102.74,155s-16.39,2.23-21.13,2.23C81.21,139,73.7,97.12,66.2,74.42c12.25-14.69,36.54-20.93,36.54-20.93ZM131,157.21c-4.74,0-21.14-2.23-21.14-2.23V53.49s24.3,6.24,36.55,20.93C138.89,97.12,131.39,139,131,157.21Z"/></svg>