<svg id="Capa_1" data-name="Capa 1" xmlns="http://www.w3.org/2000/svg" viewBox="0 0 212.6 212.6"><title>ICONE-GLOBAL-Plan de travail 16</title><path d="M96,153.63a17.45,17.45,0,0,0,18.09-16.71c0-6.54-10.07-25.8-16.87-35.6a1.49,1.49,0,0,0-1.22-.59,1.43,1.43,0,0,0-1.2.59c-6.82,9.8-16.9,29.06-16.9,35.6A17.47,17.47,0,0,0,96,153.63Zm-9.75-19.49A2.79,2.79,0,0,1,89,136.92a6.4,6.4,0,0,0,7,5.57,2.79,2.79,0,0,1,0,5.57,11.89,11.89,0,0,1-12.53-11.14,2.79,2.79,0,0,1,2.78-2.78Zm0,0"/><path d="M150.75,59.14,139,47.36a5.58,5.58,0,0,0-7.88,0L128.51,50l19.68,19.68L150.78,67a5.56,5.56,0,0,0,0-7.9Zm0,0"/><path d="M91.81,31.13H47.27a8.35,8.35,0,0,0-8.35,8.35V173.12a11.13,11.13,0,0,0,11.13,11.13h91.87a11.13,11.13,0,0,0,11.14-11.13V88.18A13.94,13.94,0,0,0,149,78.46L122.6,52.07a13.89,13.89,0,0,0-9.88-4.23H103a2.79,2.79,0,0,1-2.79-2.79V39.48a8.35,8.35,0,0,0-8.35-8.35ZM50.05,54.64V43.81a4.33,4.33,0,0,1,4.33-4.33H84.7A4.33,4.33,0,0,1,89,43.81V54.64A4.33,4.33,0,0,1,84.7,59H54.38a4.33,4.33,0,0,1-4.33-4.33ZM129,84a11.13,11.13,0,0,1,11.14,11.13v64A11.13,11.13,0,0,1,129,170.33H61.19A11.13,11.13,0,0,1,50.05,159.2v-64A11.13,11.13,0,0,1,61.19,84ZM114.08,70.11a2.78,2.78,0,1,1,0,5.56H52.83a2.78,2.78,0,0,1,0-5.56Zm0,0"/><path d="M178.11,28.35a38.93,38.93,0,0,0-27.83,11.47l-5.57,5.56,8,8,5.56-5.56a27.86,27.86,0,0,1,19.82-8.36,5.57,5.57,0,1,0,0-11.13Zm0,0"/></svg>