<svg id="Capa_1" data-name="Capa 1" xmlns="http://www.w3.org/2000/svg" viewBox="0 0 212.6 212.6"><title>ICONE-GLOBAL-Plan de travail 10</title><path d="M134.72,39.07A13.18,13.18,0,0,0,148,52.16h5.1l-.57-19H134.72Z"/><rect x="61.11" y="193.62" width="15.04" height="6.64"/><rect x="60.82" y="12.34" width="91.59" height="14.6"/><path d="M153.3,58.36H148a19.39,19.39,0,0,1-19.49-19.29V33.14H84.27v5.93A19.36,19.36,0,0,1,64.8,58.36H60L54.19,121l2.47,62.38v.13a3.53,3.53,0,0,0,1,2.67,4,4,0,0,0,2.88,1.23H76.09a3.82,3.82,0,0,0,3.71-3.11l10-63.28,11.37-40.12a5.18,5.18,0,0,1,10.15,0L122.45,121l9.68,63.31a3.82,3.82,0,0,0,3.7,3.08h15.56a4,4,0,0,0,3.87-4.12L158.41,121ZM80.62,130.11a8.53,8.53,0,0,1-8.5,8.51h-.53a8.54,8.54,0,0,1-8.51-8.51V115.67a8.53,8.53,0,0,1,8.51-8.5h.53a8.52,8.52,0,0,1,8.5,8.5Zm69.91,0a8.53,8.53,0,0,1-8.5,8.51h-.53a8.54,8.54,0,0,1-8.51-8.51V115.67a8.53,8.53,0,0,1,8.51-8.5H142a8.52,8.52,0,0,1,8.5,8.5Z"/><rect x="135.75" y="193.62" width="15.04" height="6.64"/><path d="M74.16,48.37a13.17,13.17,0,0,0,3.92-9.3V33.14H61l-.77,19H64.8A13.15,13.15,0,0,0,74.16,48.37Z"/></svg>