<svg id="Capa_1" data-name="Capa 1" xmlns="http://www.w3.org/2000/svg" viewBox="0 0 212.6 212.6"><title>ICONE-GLOBAL-Plan de travail 11 copie 2</title><path d="M181.35,133.36a16.78,16.78,0,0,1,1.42,6.77v23.18a16.82,16.82,0,0,1-1.42,6.77,11,11,0,0,0,7.83-10.54V143.9A11,11,0,0,0,181.35,133.36Z"/><polygon points="101.51 129.48 145.99 173.96 160.15 173.96 115.68 129.48 101.51 129.48"/><path d="M176.77,163.31V140.13a11,11,0,0,0-11-11h-42l44.82,44.82A11,11,0,0,0,176.77,163.31Z"/><path d="M42.9,115.15H34.43a11,11,0,0,0-11,11v5.65a11,11,0,0,0,11,11v-9.1A24.51,24.51,0,0,1,42.9,115.15Z"/><path d="M86.94,169.72a24.08,24.08,0,0,1-.44,4.6h51.37L92.66,129.11H86.5a24.18,24.18,0,0,1,.44,4.61Z"/><path d="M90.38,77.8a30.16,30.16,0,0,0,2.73,4l2.45,2.91A24.62,24.62,0,0,1,97,87.47,25.32,25.32,0,0,1,99,94a66.47,66.47,0,0,1,.5,13.7c-.54,8.4-1.36,14.57-1.36,14.57s4.5-4.36,8.08-13a42.07,42.07,0,0,0,2.36-7.26,35.78,35.78,0,0,0,1-8.81,28,28,0,0,0-1.64-9.93,31.47,31.47,0,0,0-2.35-5A22.12,22.12,0,0,0,103.9,76L103,74.9l-.45-.59-.1-.13a3,3,0,0,0,.32.36l0-.05-.18-.23c-.74-1.05-2.22-2.5-2.41-3.12A18,18,0,0,1,99,68.59,28.38,28.38,0,0,1,97.18,62a74.66,74.66,0,0,1-.4-13.75C97.32,39.78,98,33.6,98,33.6s-4.43,4.4-8,13a43.33,43.33,0,0,0-3.46,15.94c.1,3.13.14,6.58,1.41,9.93a24.3,24.3,0,0,0,2.41,5.31Zm7.41-20.57c0,.05-.2-.22,0,0Zm0,0"/><path d="M118.21,68.56a29.48,29.48,0,0,0,2.78,3.9l2.4,2.91a20.88,20.88,0,0,1,1.5,2.85,26.78,26.78,0,0,1,1.91,6.49,64.07,64.07,0,0,1,.5,13.66c-.55,8.44-1.37,14.61-1.37,14.61s4.49-4.35,8.13-13a44.65,44.65,0,0,0,2.31-7.26,33.44,33.44,0,0,0,1-8.76A27.69,27.69,0,0,0,135.73,74a37.46,37.46,0,0,0-2.31-5c-.5-.78-1.09-1.5-1.64-2.26l-.86-1.1-.45-.59-.14-.14.32.33,0,0-.19-.23c-.72-1-2.22-2.45-2.4-3.13a11.71,11.71,0,0,1-1.18-2.54A29.76,29.76,0,0,1,125,52.68a75.55,75.55,0,0,1-.41-13.76c.6-8.44,1.32-14.61,1.32-14.61s-4.44,4.4-8,13a42.68,42.68,0,0,0-3.5,16c.1,3.09.14,6.54,1.45,9.89a24.48,24.48,0,0,0,2.36,5.36Zm12.12-3.64s-.13-.17,0,0Zm0,0"/><path d="M149.77,77.8a27,27,0,0,0,2.73,3.91l2.41,2.9a23.51,23.51,0,0,1,1.5,2.86,27.14,27.14,0,0,1,1.9,6.48,67.7,67.7,0,0,1,.55,13.66c-.59,8.45-1.41,14.62-1.41,14.62s4.53-4.36,8.12-13a41.16,41.16,0,0,0,2.32-7.27,33.47,33.47,0,0,0,1-8.75,28.06,28.06,0,0,0-1.63-10,30.34,30.34,0,0,0-2.32-4.94c-.45-.82-1.09-1.54-1.62-2.32l-.87-1.08-.46-.59-.09-.14a1.77,1.77,0,0,0,.33.36l-.1-.08-.14-.24c-.76-1-2.26-2.45-2.4-3.12a11.17,11.17,0,0,1-1.22-2.54,27.35,27.35,0,0,1-1.78-6.63,67.42,67.42,0,0,1-.4-13.75c.54-8.45,1.27-14.62,1.27-14.62a43.38,43.38,0,0,0-8,13,41.72,41.72,0,0,0-3.45,16c0,3.14.1,6.54,1.41,9.9a24.16,24.16,0,0,0,2.4,5.35Zm18.48-20.58Zm0,0"/><rect x="40.39" y="115.15" width="40.55" height="73.14" rx="18.57" ry="18.57"/></svg>