<svg id="Capa_1" data-name="Capa 1" xmlns="http://www.w3.org/2000/svg" viewBox="0 0 212.6 212.6"><defs><style>.cls-1{fill:#010101;}</style></defs><title>ICONE-GLOBAL-Plan de travail 8</title><path d="M36.66,169a13.09,13.09,0,0,0,23.57,11.41c3.15-6.52-.75-28.48-.75-28.48S39.82,162.47,36.66,169Zm0,0"/><path d="M79.39,169A13.09,13.09,0,0,0,103,180.37c3.15-6.52-.75-28.48-.75-28.48S82.54,162.47,79.39,169Zm0,0"/><path d="M121.2,169a13.09,13.09,0,1,0,23.57,11.41c3.12-6.52-.78-28.48-.78-28.48S124.36,162.47,121.2,169Zm0,0"/><path class="cls-1" d="M162,44.18A48.6,48.6,0,0,0,87.3,40.69,48.51,48.51,0,0,0,49.05,67.91c-.29,0-.6,0-.92,0A34.7,34.7,0,0,0,13.44,102.6c0,19.16,9.08,39.61,34.69,39.61l84.79.47a40,40,0,0,0,32.43-16.57A41.43,41.43,0,0,0,162,44.18Zm10.46,64.66a36.93,36.93,0,0,0,.54-6.24,40.07,40.07,0,0,0-39.45-40.07,48.53,48.53,0,0,0-26.44-20,34.76,34.76,0,0,1,45.4,12l2,3.09,3.62,0a27.69,27.69,0,0,1,14.31,51.17Zm0,0"/></svg>