<svg id="Capa_1" data-name="Capa 1" xmlns="http://www.w3.org/2000/svg" viewBox="0 0 212.6 212.6"><title>ICONE-GLOBAL-Plan de travail 11 copie</title><path d="M104.24,62.12A21.81,21.81,0,0,1,126,82.43l65.1-12.05a46.18,46.18,0,0,0-45.47-39H67a46.18,46.18,0,0,0-45.46,39L82.56,82A21.8,21.8,0,0,1,104.24,62.12Z"/><path d="M121.59,115.3a17.35,17.35,0,0,1-34.69,0V97.78l-59.37-12,3.83,37.94A43.09,43.09,0,0,0,57.8,163.31V181.2a5,5,0,0,0,5,5h87a5,5,0,0,0,5-5V163.31a43.09,43.09,0,0,0,26.44-39.62L185,86.27l-63.42,11.8Zm23.21,50.83V176.2h-77V166.13a43.39,43.39,0,0,0,6.49.49h64A43.39,43.39,0,0,0,144.8,166.13Z"/><path d="M104.24,125.64a10.34,10.34,0,0,0,10.35-10.34V94.45a14.78,14.78,0,1,0-20.69,0V115.3A10.34,10.34,0,0,0,104.24,125.64Z"/></svg>