<svg id="Capa_1" data-name="Capa 1" xmlns="http://www.w3.org/2000/svg" viewBox="0 0 212.6 212.6"><title>ICONE-GLOBAL-Plan de travail 7</title><path d="M94,93.89A17.87,17.87,0,0,0,96.2,73a21.89,21.89,0,0,0-7.62,6.21,8.28,8.28,0,0,1-13.35,8.92L61.33,75.61a8.29,8.29,0,0,1-2.68-7.13L65,74.21a44.78,44.78,0,0,1,5-8.39L65,61.38a8.27,8.27,0,0,1,7.15,1.72,45,45,0,0,1,7.08-6.5l-.46-.42a17.84,17.84,0,0,0-13.49-4.5,17.75,17.75,0,0,0-5.9-12.93L45.52,26.24A17.85,17.85,0,0,0,21.65,52.78l13.9,12.5A17.76,17.76,0,0,0,49,69.78a17.77,17.77,0,0,0,5.9,12.94l13.9,12.5A17.85,17.85,0,0,0,94,93.89ZM55.71,53l-9.5-8.54a4.78,4.78,0,1,0-6.39,7.1l9.5,8.55A8.28,8.28,0,0,1,42,58.18L28.05,45.67A8.28,8.28,0,1,1,39.13,33.35L53,45.86A8.27,8.27,0,0,1,55.71,53Zm0,0"/><path d="M192.28,27.58a17.87,17.87,0,0,0-25.21-1.34l-13.9,12.51a17.77,17.77,0,0,0-5.89,12.93,17.84,17.84,0,0,0-13.49,4.5l-.46.42a45.45,45.45,0,0,1,7.08,6.5,8.26,8.26,0,0,1,7.15-1.72l-4.95,4.44a44.78,44.78,0,0,1,5,8.39L154,68.48a8.29,8.29,0,0,1-2.68,7.13l-13.9,12.51A8.28,8.28,0,0,1,124,79.2,21.89,21.89,0,0,0,116.4,73a17.84,17.84,0,0,0,27.36,22.23l13.9-12.5a17.8,17.8,0,0,0,5.9-12.94,17.79,17.79,0,0,0,13.49-4.5L191,52.78a17.87,17.87,0,0,0,1.33-25.2Zm-7.73,18.09-13.9,12.51a8.29,8.29,0,0,1-7.37,1.91l9.5-8.54a4.78,4.78,0,1,0-6.39-7.11L156.88,53a8.27,8.27,0,0,1,2.69-7.12l13.9-12.51a8.28,8.28,0,0,1,11.08,12.32Zm0,0"/><path d="M106.3,50.52A42.13,42.13,0,0,0,67.19,77.09l10.2,9.17a5.76,5.76,0,0,0,3.87,1.49,6,6,0,0,0,1-.1,24.5,24.5,0,0,1,47.93-.3,5.54,5.54,0,0,0,5.27-1.22l9.95-8.94A42.15,42.15,0,0,0,106.3,50.52Z"/><path d="M154.59,103.84h-6.23V94.6l-2.89,2.61a20.48,20.48,0,0,1-13.71,5.26q-.48,0-1,0v1.4h-49v-1.57l-.54,0a20.27,20.27,0,0,1-13.59-5.21L64.23,94v9.85H58a2.48,2.48,0,0,0-2.49,2.49v82.1A2.48,2.48,0,0,0,58,190.92h96.58a2.49,2.49,0,0,0,2.49-2.49v-82.1A2.49,2.49,0,0,0,154.59,103.84Zm-12.14,64.22a10.68,10.68,0,0,1-10.68,10.68H80.83a10.68,10.68,0,0,1-10.68-10.68V129.19a10.68,10.68,0,0,1,10.68-10.67h50.94a10.68,10.68,0,0,1,10.68,10.67Z"/><path d="M114,148.13v15.5a7.7,7.7,0,1,1-15.39,0v-15.5a11,11,0,1,1,15.39,0Z"/></svg>