<svg id="Capa_1" data-name="Capa 1" xmlns="http://www.w3.org/2000/svg" viewBox="0 0 212.6 212.6"><title>ICONE-GLOBAL-Plan de travail 5</title><path d="M180.49,175.21a4.61,4.61,0,0,0-.46-.72c-3.23-6.88-12.18-10.87-21.88-11.69-1.05-.09-2.17-.13-3.42-.13-1,0-2,0-3,.06-1.23,0-2.49.09-3.73.06-9.44-.17-18.66-14.59-24.73-21.63-6.92-8-11.35-16-11.67-17.11,0-1-.5-5.75-2.07-19.91-1.26-11.43-.67-72.18-.73-74.45,0-1-.88-2-6.83-3.11C98,25.86,82.9,25.32,77.5,25.06h-.16a3.5,3.5,0,0,0-2.5,1,3.13,3.13,0,0,0-.74,2.44L88.23,148l-20-119.59v0C68,26.18,66.84,25,65,25h-.34A73.63,73.63,0,0,0,51.56,26.6a9.58,9.58,0,0,0-1.7-1.86,13.8,13.8,0,0,0-8.77-3.35,9.61,9.61,0,0,0-7.53,3.32c-3.7,4.42-2.41,11.62,2.87,16a10.66,10.66,0,0,0,4,2c.64,3.09,9.77,54.18,11,57.7,3.63,10.37,7.73,22.12,1.67,35.32-7.06,15.41-7.69,30.13-6.95,36.38a7.51,7.51,0,0,1-.27,1.14,12.08,12.08,0,0,0-.6,3.81c-.77,6.24-.38,8.87,1.4,9.37,4.66,1.3,30.63,2.12,36.39,2.12,2,0,4.66-1,5.93-5.75a64.12,64.12,0,0,1,15.64,3.59c7.58,3.06,18.38,4.74,30.41,4.74,17.13,0,34.56-3.39,43.37-8.43A5.71,5.71,0,0,0,180.49,175.21ZM41.23,32.38a11.48,11.48,0,0,0-1.14,3.37c-2.4-2.2-3.23-5.37-1.8-7.07a3.62,3.62,0,0,1,2.8-1.13,7.36,7.36,0,0,1,4,1.32A9,9,0,0,0,41.23,32.38ZM52.29,172.43c-.5-6.86,3-28.63,7.5-40.63,0,0,5.5-6.5,4.5,0s5.5,41,5.5,41ZM80.79,39.3l22.5-3.87,3,88.44-9,2.43Zm38,133.13-19-37.63,6.51-3s21.49,28.43,31.49,33S118.79,172.43,118.79,172.43Zm21.09,3.87,8.91-9c5.5,0,23.5.73,26.5,9.86A95.83,95.83,0,0,1,139.88,176.3Z"/></svg>