<?xml version="1.0" encoding="UTF-8"?><svg id="Capa_1" xmlns="http://www.w3.org/2000/svg" viewBox="0 0 212.6 212.6"><defs><style>.cls-1{fill:none;stroke:#000;stroke-miterlimit:10;stroke-width:5px;}.cls-2{fill:#000;stroke-width:0px;}</style></defs><path class="cls-2" d="M106.3,28.35c-36.33,0-60.46,9.89-76.26,27.64l44.04,80.62c3.04,5.5,8.09,9.84,14.28,12.28l16.68,6.69h3.12l16.56-6.69c6.28-2.44,11.42-6.83,14.52-12.39l43.32-80.18c-15.8-17.75-39.93-27.97-76.26-27.97ZM84.88,94.38c-1.62,0-3.18-.6-4.32-1.65-2.29-2.13-2.29-5.55,0-7.68l30.48-27.86c2.35-2.15,6.17-2.15,8.52,0,2.35,2.15,2.35,5.64,0,7.79l-30.48,27.75c-1.11,1.03-2.62,1.62-4.2,1.65ZM139.12,78.91l-30.36,27.75c-1.14,1.05-2.7,1.64-4.32,1.65-1.58-.02-3.09-.61-4.2-1.65-2.06-2.09-2.06-5.26,0-7.35l30.48-28.19c.08-.08.17-.16.26-.24,2.32-1.99,5.96-1.88,8.14.24.01.01.02.02.03.03,2.33,2.15,2.32,5.62-.03,7.76Z"/><path class="cls-1" d="M32.36,56.15l42.7,103.7c2.95,7.07,7.85,12.66,13.85,15.8l16.17,8.61h3.03l16.06-8.61c6.09-3.14,11.08-8.79,14.08-15.94l42-103.13"/></svg>